<svg id="eocPk89HpDU1" xmlns="http://www.w3.org/2000/svg" xmlns:xlink="http://www.w3.org/1999/xlink" viewBox="0 0 24 24" shape-rendering="geometricPrecision" text-rendering="geometricPrecision"><g><path d="M7.38,15c.380157-.002646.728934.210496.9.55.44098.888824,1.347795,1.450739,2.34,1.45h2.94c.992205.000739,1.89902-.561176,2.34-1.45.171066-.339504.519843-.552646.9-.55h1.62L19,8.68c.043551-.415496-.175779-.814279-.55-1L17.06,7l-.81-3.24c-.112816-.457183-.529303-.773714-1-.76h-6.53c-.470697-.013714-.887184.302817-1,.76L6.94,7l-1.39.69c-.374221.185721-.593551.584504-.55,1L5.58,15Z" fill="none" stroke="#000" stroke-width="2" stroke-linecap="round" stroke-linejoin="round"/><path d="M16.8,15h2.2c.295418-.00381.5774.123206.770306.346977s.276989.521391.229694.813023l-.53,3.17c-.162871.974134-1.012437,1.683522-2,1.67h-11c-.987563.013522-1.837129-.695866-2-1.67L4,16.16c-.047295-.291632.036788-.589252.229694-.813023s.474888-.350787.770306-.346977h2.38c.380157-.002646.728934.210496.9.55v0c.44098.888824,1.347795,1.450739,2.34,1.45h2.94c.992205.000739,1.89902-.561176,2.34-1.45v0c.171066-.339504.519843-.552646.9-.55Z" fill="none" stroke="#1890ff" stroke-width="2" stroke-linecap="round" stroke-linejoin="round"/></g></svg>
