<?xml version="1.0" encoding="utf-8"?><!-- Uploaded to: SVG Repo, www.svgrepo.com, Generator: SVG Repo Mixer Tools -->
<svg fill="#000000" width="800px" height="800px" viewBox="0 0 24 24" id="seat-car" data-name="Line Color" xmlns="http://www.w3.org/2000/svg" class="icon line-color"><path id="primary" d="M7.38,15a1,1,0,0,1,.9.55A2.61,2.61,0,0,0,10.62,17h2.94a2.61,2.61,0,0,0,2.34-1.45,1,1,0,0,1,.9-.55h1.62L19,8.68a1,1,0,0,0-.55-1L17.06,7l-.81-3.24a1,1,0,0,0-1-.76H8.72a1,1,0,0,0-1,.76L6.94,7l-1.39.69a1,1,0,0,0-.55,1L5.58,15Z" style="fill: none; stroke: rgb(0, 0, 0); stroke-linecap: round; stroke-linejoin: round; stroke-width: 2;"></path><path id="secondary" d="M16.8,15H19a1,1,0,0,1,1,1.16l-.53,3.17a2,2,0,0,1-2,1.67h-11a2,2,0,0,1-2-1.67L4,16.16A1,1,0,0,1,5,15H7.38a1,1,0,0,1,.9.55h0A2.61,2.61,0,0,0,10.62,17h2.94a2.61,2.61,0,0,0,2.34-1.45h0A1,1,0,0,1,16.8,15Z" style="fill: none; stroke: rgb(44, 169, 188); stroke-linecap: round; stroke-linejoin: round; stroke-width: 2;"></path></svg>