<svg xmlns="http://www.w3.org/2000/svg" version="1.1" xmlns:xlink="http://www.w3.org/1999/xlink" xmlns:svgjs="http://svgjs.dev/svgjs" width="1440" height="250" preserveAspectRatio="none" viewBox="0 0 1440 250"><g mask="url(&quot;#SvgjsMask1000&quot;)" fill="none"><rect width="1440" height="250" x="0" y="0" fill="#0e2a47"></rect><path d="M26 250L276 0L355.5 0L105.5 250z" fill="url(&quot;#SvgjsLinearGradient1001&quot;)"></path><path d="M271.6 250L521.6 0L859.1 0L609.1 250z" fill="url(&quot;#SvgjsLinearGradient1001&quot;)"></path><path d="M499.20000000000005 250L749.2 0L842.2 0L592.2 250z" fill="url(&quot;#SvgjsLinearGradient1001&quot;)"></path><path d="M756.8000000000001 250L1006.8000000000001 0L1284.3000000000002 0L1034.3000000000002 250z" fill="url(&quot;#SvgjsLinearGradient1001&quot;)"></path><path d="M1400 250L1150 0L979 0L1229 250z" fill="url(&quot;#SvgjsLinearGradient1002&quot;)"></path><path d="M1188.4 250L938.4000000000001 0L899.4000000000001 0L1149.4 250z" fill="url(&quot;#SvgjsLinearGradient1002&quot;)"></path><path d="M941.8 250L691.8 0L480.29999999999995 0L730.3 250z" fill="url(&quot;#SvgjsLinearGradient1002&quot;)"></path><path d="M714.1999999999999 250L464.19999999999993 0L324.69999999999993 0L574.6999999999999 250z" fill="url(&quot;#SvgjsLinearGradient1002&quot;)"></path><path d="M1234.8817057901929 250L1440 44.88170579019291L1440 250z" fill="url(&quot;#SvgjsLinearGradient1001&quot;)"></path><path d="M0 250L205.1182942098071 250L 0 44.88170579019291z" fill="url(&quot;#SvgjsLinearGradient1002&quot;)"></path></g><defs><mask id="SvgjsMask1000"><rect width="1440" height="250" fill="#ffffff"></rect></mask><linearGradient x1="0%" y1="100%" x2="100%" y2="0%" id="SvgjsLinearGradient1001"><stop stop-color="rgba(15, 70, 185, 0.2)" offset="0"></stop><stop stop-opacity="0" stop-color="rgba(15, 70, 185, 0.2)" offset="0.66"></stop></linearGradient><linearGradient x1="100%" y1="100%" x2="0%" y2="0%" id="SvgjsLinearGradient1002"><stop stop-color="rgba(15, 70, 185, 0.2)" offset="0"></stop><stop stop-opacity="0" stop-color="rgba(15, 70, 185, 0.2)" offset="0.66"></stop></linearGradient></defs></svg>